<svg width="16" height="16" viewBox="0 0 16 16" fill="none" xmlns="http://www.w3.org/2000/svg">
<g clip-path="url(#clip0_530_314)">
<path d="M7.9987 1.3335C4.31536 1.3335 1.33203 4.31683 1.33203 8.00016C1.33203 11.6835 4.31536 14.6668 7.9987 14.6668C11.682 14.6668 14.6654 11.6835 14.6654 8.00016C14.6654 4.31683 11.682 1.3335 7.9987 1.3335ZM7.9987 3.3335C9.10203 3.3335 9.9987 4.23016 9.9987 5.3335C9.9987 6.44016 9.10203 7.3335 7.9987 7.3335C6.89536 7.3335 5.9987 6.44016 5.9987 5.3335C5.9987 4.23016 6.89536 3.3335 7.9987 3.3335ZM7.9987 12.8002C6.3287 12.8002 4.86203 11.9468 3.9987 10.6535C4.01536 9.33016 6.6687 8.60016 7.9987 8.60016C9.3287 8.60016 11.9787 9.33016 11.9987 10.6535C11.1354 11.9468 9.6687 12.8002 7.9987 12.8002Z" fill="#B4B4B4"/>
</g>
<defs>
<clipPath id="clip0_530_314">
<rect width="16" height="16" fill="white"/>
</clipPath>
</defs>
</svg>
