<svg width="215" height="37" viewBox="0 0 215 37" fill="none" xmlns="http://www.w3.org/2000/svg">
<g clip-path="url(#clip0_550_3)">
<mask id="mask0_550_3" style="mask-type:luminance" maskUnits="userSpaceOnUse" x="0" y="0" width="234" height="37">
<path d="M234 0H0V37H234V0Z" fill="white"/>
</mask>
<g mask="url(#mask0_550_3)">
<path d="M146 18.5C146 14.9101 143.09 12 139.5 12H18.5C14.9101 12 12 14.9101 12 18.5V18.5C12 22.0899 14.9101 25 18.5 25H139.5C143.09 25 146 22.0899 146 18.5V18.5Z" fill="white"/>
<path d="M169 18.5C169 14.9101 166.09 12 162.5 12V12C158.91 12 156 14.9101 156 18.5V18.5C156 22.0899 158.91 25 162.5 25V25C166.09 25 169 22.0899 169 18.5V18.5Z" fill="white"/>
<path d="M192 18.5C192 14.9101 189.09 12 185.5 12V12C181.91 12 179 14.9101 179 18.5V18.5C179 22.0899 181.91 25 185.5 25V25C189.09 25 192 22.0899 192 18.5V18.5Z" fill="white"/>
<path d="M215 18.5C215 14.9101 212.09 12 208.5 12V12C204.91 12 202 14.9101 202 18.5V18.5C202 22.0899 204.91 25 208.5 25V25C212.09 25 215 22.0899 215 18.5V18.5Z" fill="white"/>
<path d="M18.4737 37C28.6764 37 36.9474 28.7173 36.9474 18.5C36.9474 8.28273 28.6764 0 18.4737 0C8.27095 0 0 8.28273 0 18.5C0 28.7173 8.27095 37 18.4737 37Z" fill="white"/>
</g>
</g>
<defs>
<clipPath id="clip0_550_3">
<rect width="215" height="37" fill="white"/>
</clipPath>
</defs>
</svg>
