<svg width="234" height="37" viewBox="0 0 234 37" fill="none" xmlns="http://www.w3.org/2000/svg">
<g clip-path="url(#clip0_544_4)">
<path d="M209.369 12.3335H12.3164V24.6668H209.369V12.3335Z" fill="#42EBB8"/>
<path d="M215.524 37C225.727 37 233.998 28.7173 233.998 18.5C233.998 8.28273 225.727 0 215.524 0C205.322 0 197.051 8.28273 197.051 18.5C197.051 28.7173 205.322 37 215.524 37Z" fill="#42EBB8"/>
<path d="M18.4737 37C28.6764 37 36.9474 28.7173 36.9474 18.5C36.9474 8.28273 28.6764 0 18.4737 0C8.27095 0 0 8.28273 0 18.5C0 28.7173 8.27095 37 18.4737 37Z" fill="#42EBB8"/>
</g>
<defs>
<clipPath id="clip0_544_4">
<rect width="234" height="37" fill="white"/>
</clipPath>
</defs>
</svg>
