<svg width="7" height="7" viewBox="0 0 7 7" fill="none" xmlns="http://www.w3.org/2000/svg">
<g clip-path="url(#clip0_530_233)">
<path d="M3.49971 0C1.56981 0 0 1.57012 0 3.50004C0 5.42996 1.56981 7 3.49971 7C5.42969 7 6.99976 5.4299 6.99976 3.50004C6.99976 1.57012 5.42968 0 3.49971 0ZM3.49971 6.25901C1.97849 6.25901 0.741019 5.02127 0.741019 3.50004C0.741019 1.97882 1.9785 0.741005 3.49971 0.741005C5.021 0.741005 6.25875 1.97882 6.25875 3.50004C6.25875 5.02127 5.02098 6.25901 3.49971 6.25901Z" fill="#D4D4D4"/>
<path d="M3.85626 3.16016H3.1457C3.02648 3.16016 2.92969 3.25695 2.92969 3.37599V5.48271C2.92969 5.60194 3.02648 5.69855 3.1457 5.69855H3.85626C3.97548 5.69855 4.07227 5.6019 4.07227 5.48271V3.376C4.07227 3.25696 3.97548 3.16016 3.85626 3.16016Z" fill="#D4D4D4"/>
<path d="M3.50015 1.30176C3.15066 1.30176 2.86719 1.58522 2.86719 1.93472C2.86719 2.28426 3.15065 2.56774 3.50015 2.56774C3.84971 2.56774 4.13319 2.28428 4.13319 1.93472C4.13318 1.58522 3.84972 1.30176 3.50015 1.30176Z" fill="#D4D4D4"/>
</g>
<defs>
<clipPath id="clip0_530_233">
<rect width="7" height="7" fill="white"/>
</clipPath>
</defs>
</svg>
