<svg width="14" height="14" viewBox="0 0 14 14" fill="none" xmlns="http://www.w3.org/2000/svg">
<g clip-path="url(#clip0_530_308)">
<path fill-rule="evenodd" clip-rule="evenodd" d="M13.5779 5.7757L12.3433 5.30276C12.26 5.27063 12.1841 5.22191 12.1202 5.15954C12.0563 5.09717 12.0058 5.02246 11.9717 4.93995C11.9375 4.85744 11.9206 4.76886 11.9218 4.67959C11.923 4.59031 11.9423 4.50222 11.9786 4.42066L12.5161 3.21535C12.5709 3.09379 12.5873 2.95839 12.563 2.82726C12.5388 2.69614 12.4751 2.57555 12.3804 2.48163L11.5185 1.61831C11.4244 1.52395 11.3038 1.46043 11.1728 1.4362C11.0417 1.41196 10.9064 1.42814 10.7847 1.4826L9.57952 2.02249C9.49784 2.05866 9.40965 2.07785 9.32032 2.0789C9.231 2.07994 9.14239 2.06282 9.05988 2.02858C8.97737 1.99433 8.90269 1.94367 8.84036 1.87967C8.77804 1.81568 8.72937 1.73968 8.69732 1.65631L8.22478 0.42318C8.17714 0.298646 8.09281 0.19151 7.98294 0.115945C7.87308 0.0403802 7.74286 -5.11417e-05 7.60951 4.8549e-08H6.38959C6.25628 -5.34058e-06 6.12611 0.0404474 6.01629 0.116009C5.90646 0.191571 5.82217 0.298682 5.77454 0.42318L5.3029 1.65631C5.27085 1.73968 5.22219 1.81568 5.15987 1.87967C5.09754 1.94367 5.02285 1.99433 4.94035 2.02858C4.85784 2.06282 4.76923 2.07994 4.6799 2.0789C4.59057 2.07785 4.50239 2.05866 4.42071 2.02249L3.21436 1.48351C3.09271 1.42905 2.95738 1.41286 2.82632 1.4371C2.69526 1.46134 2.57467 1.52485 2.48055 1.61921L1.61781 2.48073C1.52349 2.57487 1.46001 2.69544 1.43577 2.82647C1.41154 2.9575 1.42769 3.0928 1.48209 3.21445L2.02113 4.41976C2.05748 4.50141 2.0768 4.5896 2.07793 4.67897C2.07906 4.76833 2.06196 4.85699 2.02769 4.93953C1.99342 5.02207 1.9427 5.09677 1.8786 5.15906C1.81451 5.22136 1.7384 5.26994 1.65491 5.30185L0.423228 5.77479C0.298733 5.82203 0.191565 5.90604 0.115967 6.01565C0.0403692 6.12525 -7.78419e-05 6.25527 1.1247e-07 6.38841V7.60978C-7.78419e-05 7.74292 0.0403692 7.87294 0.115967 7.98254C0.191565 8.09215 0.298733 8.17616 0.423228 8.2234L1.65491 8.69498C1.73853 8.72711 1.81473 8.77591 1.87888 8.83843C1.94303 8.90095 1.99378 8.97587 2.02804 9.05862C2.0623 9.14138 2.07936 9.23025 2.07817 9.31981C2.07698 9.40936 2.05758 9.49775 2.02113 9.57957L1.48164 10.784C1.42724 10.9056 1.41109 11.0409 1.43532 11.1719C1.45956 11.303 1.52304 11.4235 1.61736 11.5177L2.4801 12.3817C2.57441 12.4758 2.69499 12.5391 2.82597 12.5633C2.95695 12.5875 3.09219 12.5715 3.21391 12.5174L4.41935 11.98C4.50097 11.9434 4.58922 11.9238 4.67868 11.9225C4.76814 11.9212 4.85691 11.9383 4.93954 11.9726C5.02217 12.0069 5.09691 12.0577 5.15917 12.122C5.22142 12.1862 5.26988 12.2625 5.30155 12.3462L5.77318 13.5777C5.82081 13.7022 5.90511 13.8093 6.01493 13.8849C6.12475 13.9605 6.25492 14.0009 6.38823 14.0009H7.60815C7.74146 14.0009 7.87163 13.9605 7.98145 13.8849C8.09127 13.8093 8.17557 13.7022 8.2232 13.5777L8.69484 12.3462C8.72651 12.2625 8.77496 12.1862 8.83721 12.122C8.89947 12.0577 8.97421 12.0069 9.05684 11.9726C9.13947 11.9383 9.22824 11.9212 9.3177 11.9225C9.40716 11.9238 9.49541 11.9434 9.57703 11.98L10.7859 12.5165C10.9076 12.5706 11.0428 12.5866 11.1738 12.5624C11.3048 12.5382 11.4254 12.4748 11.5197 12.3808L12.3824 11.5168C12.4771 11.4229 12.5408 11.3023 12.5651 11.1712C12.5893 11.04 12.573 10.9046 12.5181 10.7831L11.9807 9.57934C11.9443 9.49761 11.9248 9.40933 11.9236 9.31987C11.9223 9.2304 11.9392 9.14161 11.9733 9.05889C12.0074 8.97616 12.058 8.90123 12.1219 8.83864C12.1859 8.77604 12.2619 8.72709 12.3453 8.69476L13.5799 8.22317C13.7042 8.17571 13.8111 8.09161 13.8864 7.98202C13.9617 7.87243 14.002 7.74254 14.0018 7.60955V6.38819C14.002 6.2552 13.9617 6.1253 13.8864 6.01572C13.8111 5.90613 13.7042 5.82203 13.5799 5.77456M7.60951 10.0591C6.95297 10.1901 6.27169 10.1064 5.66636 9.82049C5.06102 9.53455 4.56373 9.06149 4.24796 8.47122C3.9322 7.88094 3.81472 7.20476 3.91287 6.54258C4.01103 5.8804 4.31961 5.26736 4.79303 4.79404C5.26645 4.32072 5.87959 4.01222 6.54185 3.91414C7.20411 3.81606 7.88036 3.93359 8.47068 4.24937C9.06099 4.56515 9.53406 5.06243 9.81997 5.66773C10.1059 6.27302 10.1895 6.95423 10.0584 7.61068C9.93736 8.21486 9.64025 8.76972 9.20448 9.2054C8.76871 9.64108 8.21376 9.9381 7.60951 10.0591Z" fill="#B4B4B4"/>
</g>
<defs>
<clipPath id="clip0_530_308">
<rect width="14" height="14" fill="white"/>
</clipPath>
</defs>
</svg>
