<svg width="103" height="29" viewBox="0 0 103 29" fill="none" xmlns="http://www.w3.org/2000/svg">
<circle cx="91" cy="23" r="6" fill="#47ECBA"/>
<circle cx="63" cy="23" r="6" fill="#47ECBA"/>
<path d="M53 2C53 0.89543 53.8954 0 55 0H83C94.0457 0 103 8.95431 103 20V20C103 22.7614 100.761 25 98 25H55C53.8954 25 53 24.1046 53 23V2Z" fill="#D9D9D9"/>
<path d="M82 6.44C82 5.64471 82.6447 5 83.44 5H86.08C90.4541 5 94 8.5459 94 12.92V12.92C94 13.5165 93.5165 14 92.92 14H85C83.3431 14 82 12.6569 82 11V6.44Z" fill="white"/>
<path d="M82 6.44C82 5.64471 82.6447 5 83.44 5H86.08C90.4541 5 94 8.5459 94 12.92V12.92C94 13.5165 93.5165 14 92.92 14H85C83.3431 14 82 12.6569 82 11V6.44Z" fill="white"/>
<path d="M82 6.44C82 5.64471 82.6447 5 83.44 5H86.08C90.4541 5 94 8.5459 94 12.92V12.92C94 13.5165 93.5165 14 92.92 14H85C83.3431 14 82 12.6569 82 11V6.44Z" fill="white"/>
<rect x="58" y="5" width="19" height="9" rx="3" fill="white"/>
<rect x="58" y="5" width="19" height="9" rx="3" fill="white"/>
<rect x="58" y="5" width="19" height="9" rx="3" fill="white"/>
<circle cx="6" cy="6" r="6" transform="matrix(-1 0 0 1 18 17)" fill="#47ECBA"/>
<circle cx="6" cy="6" r="6" transform="matrix(-1 0 0 1 46 17)" fill="#47ECBA"/>
<path d="M50 2C50 0.89543 49.1046 0 48 0H20C8.9543 0 0 8.95431 0 20V20C0 22.7614 2.23858 25 5 25H48C49.1046 25 50 24.1046 50 23V2Z" fill="#D9D9D9"/>
<path d="M21 6.44C21 5.64471 20.3553 5 19.56 5H16.92C12.5459 5 9 8.5459 9 12.92V12.92C9 13.5165 9.48353 14 10.08 14H18C19.6569 14 21 12.6569 21 11V6.44Z" fill="white"/>
<path d="M21 6.44C21 5.64471 20.3553 5 19.56 5H16.92C12.5459 5 9 8.5459 9 12.92V12.92C9 13.5165 9.48353 14 10.08 14H18C19.6569 14 21 12.6569 21 11V6.44Z" fill="white"/>
<path d="M21 6.44C21 5.64471 20.3553 5 19.56 5H16.92C12.5459 5 9 8.5459 9 12.92V12.92C9 13.5165 9.48353 14 10.08 14H18C19.6569 14 21 12.6569 21 11V6.44Z" fill="white"/>
<rect width="19" height="9" rx="3" transform="matrix(-1 0 0 1 45 5)" fill="white"/>
<rect width="19" height="9" rx="3" transform="matrix(-1 0 0 1 45 5)" fill="white"/>
<rect width="19" height="9" rx="3" transform="matrix(-1 0 0 1 45 5)" fill="white"/>
</svg>
