<svg width="103" height="29" viewBox="0 0 103 29" fill="none" xmlns="http://www.w3.org/2000/svg">
<circle cx="91" cy="23" r="6" fill="#47ECBA"/>
<circle cx="63" cy="23" r="6" fill="#47ECBA"/>
<circle cx="40" cy="23" r="6" fill="#47ECBA"/>
<circle cx="12" cy="23" r="6" fill="#47ECBA"/>
<path d="M53 2C53 0.89543 53.8954 0 55 0H83C94.0457 0 103 8.95431 103 20V20C103 22.7614 100.761 25 98 25H55C53.8954 25 53 24.1046 53 23V2Z" fill="#D9D9D9"/>
<path d="M0 5C0 2.23858 2.23858 0 5 0H48C49.1046 0 50 0.89543 50 2V23C50 24.1046 49.1046 25 48 25H5C2.23858 25 0 22.7614 0 20V5Z" fill="#D9D9D9"/>
<path d="M79 6.95652C79 5.87596 79.876 5 80.9565 5H86.1739C90.4961 5 94 8.50386 94 12.8261V12.8261C94 13.4744 93.4744 14 92.8261 14H82C80.3431 14 79 12.6569 79 11V6.95652Z" fill="white"/>
<path d="M79 6.95652C79 5.87596 79.876 5 80.9565 5H86.1739C90.4961 5 94 8.50386 94 12.8261V12.8261C94 13.4744 93.4744 14 92.8261 14H82C80.3431 14 79 12.6569 79 11V6.95652Z" fill="white"/>
<path d="M79 6.95652C79 5.87596 79.876 5 80.9565 5H86.1739C90.4961 5 94 8.50386 94 12.8261V12.8261C94 13.4744 93.4744 14 92.8261 14H82C80.3431 14 79 12.6569 79 11V6.95652Z" fill="white"/>
<rect x="5" y="5" width="40" height="9" rx="3" fill="white"/>
<rect x="5" y="5" width="40" height="9" rx="3" fill="white"/>
<rect x="5" y="5" width="40" height="9" rx="3" fill="white"/>
<rect x="58" y="5" width="16" height="9" rx="3" fill="white"/>
<rect x="58" y="5" width="16" height="9" rx="3" fill="white"/>
<rect x="58" y="5" width="16" height="9" rx="3" fill="white"/>
</svg>
